<svg version="1.1" xmlns="http://www.w3.org/2000/svg" xmlns:xlink="http://www.w3.org/1999/xlink" viewBox="0 0 172 172"><g fill="none" fill-rule="nonzero" stroke="none" stroke-width="1" stroke-linecap="butt" stroke-linejoin="miter" stroke-miterlimit="10" stroke-dasharray="" stroke-dashoffset="0" font-family="none" font-weight="none" font-size="none" text-anchor="none" style="mix-blend-mode: normal"><path d="M0,172v-172h172v172z" fill="none"></path><g fill="#2e2f48"><path d="M44.84766,4.53516c-1.48427,0 -2.6875,1.20323 -2.6875,2.6875c0,2.44562 0.23407,24.14861 8.38794,32.30249c7.25904,7.2643 19.00542,7.35547 26.37634,0.20471c1.59949,1.82528 3.06266,3.76564 4.37768,5.80542c1.33632,2.12985 2.03401,4.59818 2.01038,7.11243v3.92627c-14.421,1.44936 -25.09502,14.07288 -24.12756,28.53421c0.96746,14.46132 13.22785,25.55054 27.7134,25.06606c14.48555,-0.48447 25.97761,-12.36809 25.97666,-26.86174c-0.01709,-13.79502 -10.46324,-25.34291 -24.1875,-26.73853v-2.14685c2.06001,-3.98488 4.56775,-7.72184 7.47461,-11.13843c5.31418,4.1852 12.92151,3.72244 17.68921,-1.07605c6.30756,-6.30487 6.48779,-21.13282 6.48779,-22.80176c0,-1.48427 -1.20323,-2.6875 -2.6875,-2.6875c-1.66894,0 -16.49688,0.18292 -22.80176,6.48779c-4.24411,4.19838 -5.15943,10.71521 -2.23608,15.92029c-1.87091,2.16158 -3.60139,4.44082 -5.18079,6.82373c-0.42109,-1.15517 -0.96114,-2.26342 -1.61145,-3.30688c-1.65446,-2.56522 -3.51528,-4.9913 -5.56397,-7.25415c4.08647,-7.34253 2.81441,-16.5039 -3.11792,-22.45532c-8.14312,-8.17 -29.8383,-8.40369 -32.29199,-8.40369zM47.59815,9.97314c7.35837,0.31712 20.87658,1.88318 25.75171,6.75024c3.82702,3.83647 4.97939,9.59418 2.9237,14.60803c-3.98965,-3.74087 -8.44627,-6.95014 -13.25903,-9.54797l-2.40405,4.82385c4.5886,2.51195 8.82459,5.62011 12.59766,9.24353c-5.255,5.13665 -13.66514,5.0875 -18.85974,-0.11023v-0.01575c-4.87781,-4.87781 -6.43312,-18.39333 -6.75024,-25.75171zM29.89844,10.75525c-2.19499,-0.09154 -4.33228,0.71659 -5.91758,2.2375c-1.58531,1.5209 -2.48133,3.62286 -2.48085,5.81975c0,4.4528 3.6097,8.0625 8.0625,8.0625c4.40641,0.02692 8.01819,-3.48883 8.11,-7.89436c0.09181,-4.40554 -3.37036,-8.0687 -7.77407,-8.22539zM29.5625,16.125c1.48427,0 2.6875,1.20323 2.6875,2.6875c0,1.48427 -1.20323,2.6875 -2.6875,2.6875c-1.48427,0 -2.6875,-1.20323 -2.6875,-2.6875c0,-1.48427 1.20323,-2.6875 2.6875,-2.6875zM134.71094,21.50525c-2.19499,-0.09154 -4.33228,0.71659 -5.91758,2.2375c-1.58531,1.5209 -2.48133,3.62286 -2.48085,5.81975c0,4.4528 3.6097,8.0625 8.0625,8.0625c4.40641,0.02692 8.01819,-3.48883 8.11,-7.89436c0.09181,-4.40554 -3.37036,-8.0687 -7.77407,-8.22539zM114.85913,22.20337c-0.33056,4.95306 -1.52667,12.92755 -4.8081,16.20898c-2.75069,2.74018 -7.06373,3.13067 -10.26184,0.92908c2.75585,-2.81001 5.80553,-5.31591 9.09656,-7.47461l-2.77148,-4.60864c-3.42295,2.20329 -6.60395,4.76147 -9.49023,7.63208c-0.84739,-2.79859 -0.06624,-5.83619 2.02612,-7.87879c3.28144,-3.28144 11.25592,-4.47754 16.20898,-4.8081zM134.375,26.875c1.48427,0 2.6875,1.20323 2.6875,2.6875c0,1.48427 -1.20323,2.6875 -2.6875,2.6875c-1.48427,0 -2.6875,-1.20323 -2.6875,-2.6875c0,-1.48427 1.20323,-2.6875 2.6875,-2.6875zM26.875,32.25v5.375h5.375v-5.375zM26.875,43v5.375h5.375v-5.375zM131.6875,43v5.375h5.375v-5.375zM15.36914,53.29333c-0.95438,-0.02309 -1.90759,0.08106 -2.83447,0.30969c-2.77676,0.68071 -5.16722,2.44105 -6.64134,4.89069c-1.47412,2.44964 -1.91007,5.38614 -1.2112,8.15838l14.16711,56.78919c1.48054,5.94968 4.50211,11.40443 8.76062,15.81531l3.39087,3.52734c4.54262,5.04947 6.92134,11.68048 6.62427,18.46607v2.6875c0,1.48427 1.20323,2.6875 2.6875,2.6875h34.9375c1.48427,0 2.6875,-1.20323 2.6875,-2.6875v-13.38501c0.23174,-6.11687 -0.49439,-12.23236 -2.1521,-18.12488l-0.10498,-0.30445c-2.61078,-8.50261 -7.18723,-16.27089 -13.35876,-22.67578l-19.05396,-19.74683c-1.98835,-2.04926 -4.70885,-3.22543 -7.56384,-3.27014c-1.28354,-0.03021 -2.56101,0.18537 -3.76355,0.63513l-6.40906,-25.64673c-1.17762,-4.68368 -5.33411,-8.00715 -10.16211,-8.12549zM157.34998,53.31433c-5.09661,-0.21417 -9.64494,3.17517 -10.89697,8.12024l-6.39331,25.64148c-3.96884,-1.44012 -8.41358,-0.40507 -11.33789,2.64026l-19.04346,19.73108c-6.15173,6.3799 -10.71703,14.11698 -13.32727,22.58655l-0.17322,0.49341c-1.63216,5.84508 -2.3458,11.90835 -2.11536,17.97266v13.4375c0,1.48427 1.20323,2.6875 2.6875,2.6875h34.9375c1.48427,0 2.6875,-1.20323 2.6875,-2.6875v-2.6875c-0.29674,-6.78806 2.08395,-13.4212 6.62952,-18.47131l3.37512,-3.5116c4.2646,-4.41292 7.2916,-9.8713 8.77637,-15.8258l14.16186,-56.78919c0.9646,-3.73193 -0.16843,-7.69355 -2.96045,-10.35107c-1.35621,-1.31533 -3.04001,-2.24333 -4.87634,-2.6875c-0.6986,-0.1706 -1.41253,-0.27083 -2.1311,-0.29919zM131.6875,53.75v5.375h5.375v-5.375zM14.89673,58.66309c2.54281,-0.10135 4.80821,1.59441 5.42749,4.06274l6.89722,27.62561c-3.45593,4.2441 -3.19211,10.4021 0.61414,14.33508l20.50268,21.2113l3.86328,-3.7373l-20.48694,-21.20605c-1.94084,-1.96815 -2.07251,-5.08745 -0.30444,-7.21216c0.54756,-0.66173 1.25614,-1.17147 2.05762,-1.48022c0.66727,-0.33158 1.40767,-0.48869 2.1521,-0.45667c1.43091,0.02455 2.79372,0.61536 3.78979,1.64294l19.04871,19.73108c5.6023,5.8212 9.75287,12.8815 12.11475,20.60767l0.10498,0.29919c1.47291,5.34091 2.1086,10.87795 1.8844,16.4137v10.75h-29.5625c0.31183,-8.17776 -2.60697,-16.14977 -8.12549,-22.19287l-3.39087,-3.5326c-3.60694,-3.73217 -6.1669,-8.34879 -7.42212,-13.38501l-14.16187,-56.80493c-0.48398,-1.86696 0.08503,-3.84944 1.48547,-5.17554c0.67874,-0.66099 1.52413,-1.12541 2.44605,-1.34375c0.3492,-0.08627 0.70617,-0.13726 1.06555,-0.15222zM156.75159,58.66833c0.48782,-0.01352 0.97521,0.03946 1.44873,0.15747c1.38452,0.34124 2.57556,1.221 3.30876,2.444c0.73321,1.223 0.94793,2.68807 0.59651,4.07004h-0.00525l-14.15662,56.79968c-1.25968,5.04095 -3.82504,9.66114 -7.43787,13.39551l-3.37512,3.51684c-5.52147,6.04374 -8.44224,14.01788 -8.13074,22.19812h-29.5625v-10.80249c-0.22099,-5.48348 0.40398,-10.96827 1.8529,-16.26147l0.16797,-0.48816c2.36347,-7.69607 6.50661,-14.72718 12.09375,-20.52368l19.03296,-19.71533c0.99681,-1.031 2.36124,-1.62546 3.79505,-1.65344c0.83114,0.00386 1.65084,0.19398 2.3988,0.5564c0.70848,0.29852 1.33231,0.7673 1.81616,1.36474c1.78192,2.12331 1.65689,5.25348 -0.2887,7.2279l-20.50268,21.2113l3.86853,3.7373l20.49744,-21.2113c3.80544,-3.93264 4.07144,-10.08886 0.61939,-14.33508l6.89197,-27.61511c0.58376,-2.34232 2.65747,-4.00816 5.07056,-4.07324zM85.10767,61.83349c5.85149,-0.24307 11.54891,1.91144 15.77541,5.96554c4.22649,4.05411 6.61625,9.65692 6.61693,15.51346c-0.01333,11.8686 -9.6314,21.48667 -21.5,21.5c-11.67841,-0.03038 -21.19702,-9.3777 -21.43944,-21.05364c-0.24242,-11.67593 8.88002,-21.41028 20.5471,-21.92537zM83.3125,67.1875v2.6875c-4.4528,0 -8.0625,3.6097 -8.0625,8.0625c0,4.4528 3.6097,8.0625 8.0625,8.0625h5.375c1.48427,0 2.6875,1.20323 2.6875,2.6875c0,1.48427 -1.20323,2.6875 -2.6875,2.6875h-5.375c-1.48427,0 -2.6875,-1.20323 -2.6875,-2.6875h-5.375c0,4.4528 3.6097,8.0625 8.0625,8.0625v2.6875h5.375v-2.6875c4.4528,0 8.0625,-3.6097 8.0625,-8.0625c0,-4.4528 -3.6097,-8.0625 -8.0625,-8.0625h-5.375c-1.48427,0 -2.6875,-1.20323 -2.6875,-2.6875c0,-1.48427 1.20323,-2.6875 2.6875,-2.6875h5.375c1.48427,0 2.6875,1.20323 2.6875,2.6875h5.375c0,-4.4528 -3.6097,-8.0625 -8.0625,-8.0625v-2.6875z"></path></g></g></svg>